<svg xmlns="http://www.w3.org/2000/svg" viewBox="0 0 512 512" role="img" aria-label="Swyra Icon Dark">
  <path fill="#ffffff" d="
    M352,164
    c0,-38 -43,-64 -96,-64
    c-54,0 -96,24 -96,60
    c0,32 26,52 84,68
    l44,12
    c64,17 96,44 96,94
    c0,66 -56,108 -130,108
    c-50,0 -100,-18 -133,-47
    l22,-42
    c30,24 74,39 113,39
    c48,0 82,-22 82,-56
    c0,-28 -18,-44 -70,-58
    l-48,-13
    c-72,-19 -106,-49 -106,-98
    c0,-70 65,-120 150,-120
    c56,0 112,22 142,54
    Z"></path>
</svg>
